<?xml version="1.0" encoding="UTF-8" standalone="no"?>
<!DOCTYPE svg  PUBLIC '-//W3C//DTD SVG 1.0//EN'  'http://www.w3.org/TR/2001/REC-SVG-20010904/DTD/svg10.dtd'>
<svg xmlns="http://www.w3.org/2000/svg" xml:space="preserve" viewBox="0 0 93.2387 93.2387" width="600" height="600" color-interpolation-filters="sRGB">
	<style type="text/css">
	<![CDATA[
		.st1 {fill:none;stroke:#000000;stroke-linecap:butt;stroke-width:0.235154}
		.st2 {fill:#00a54f;stroke:none;stroke-linecap:round;stroke-linejoin:round;stroke-width:0.117577}
	]]>
	</style>
	<rect y="0" x="0" height="93.239" class="st1" width="93.239"/>
	<path d="m58.44 56.2l-1.77 3.53-1.41 3.06-0.7 1.29-0.47 0.94-0.48 0.82-0.23 0.47-0.24 0.24-0.94 1.29-0.47 0.59-0.58 0.47-0.71 0.35-0.94 0.24-1.18 0.23h-7.87l7.4-15.52-2.47-0.23-2.23-0.12-2-0.12h-4l-2.47 0.12-2.58 0.24-2.71 0.23-2.94 0.47-2.82 0.59-2.94 0.59-2.82 0.82-2.7 1.06-2.59 1.17-2.23 1.3-2 1.53-1.65 1.76-1.29 2-0.47 1.06-0.35 1.17-0.12 1.18-0.12 1.29 0.12 1.29 0.12 1.18 0.35 1.18 0.47 1.05 1.29 2 1.65 1.77 2 1.53 2.23 1.41 2.59 1.05 2.7 1.06 2.82 0.83 2.94 0.7 2.82 0.47 2.94 0.47 2.71 0.24 2.58 0.23 2.47 0.12h4.24l2.35-0.12 2.59-0.23 2.82-0.24 2.82-0.47 2.94-0.47 2.82-0.7 2.82-0.83 2.71-1.06 2.58-1.05 2.24-1.41 2-1.53 1.64-1.77 1.3-2 0.47-1.05 0.35-1.18 0.12-1.18 0.11-1.29-0.11-1.41-0.24-1.29-0.35-1.3-0.59-1.05-0.71-1.18-0.7-0.94-2-1.88-2.35-1.65-2.59-1.29-2.94-1.18-3.05-0.94z" class="st2"/>
	<path d="m58.67 12.46l-0.12 1.18-0.35 1.06-0.47 0.94-0.71 0.94-0.94 0.7-0.94 0.47-1.05 0.36-1.18 0.11-1.18-0.11-1.05-0.36-0.95-0.47-0.94-0.7-0.7-0.94-0.47-0.94-0.35-1.06-0.12-1.18 0.12-1.17 0.35-1.18 0.47-0.94 0.7-0.82 0.94-0.82 0.95-0.47 1.05-0.36 1.18-0.12 1.18 0.12 1.05 0.36 0.94 0.47 0.94 0.82 0.71 0.82 0.47 0.94 0.35 1.18 0.12 1.17z" class="st2"/>
	<path d="m44.09 29.98l-2.47-0.12h-2.35l-1.06-0.12h-2.47l-1.17 0.12-1.06 0.47-0.47 0.47-0.23 0.47-0.24 0.59v0.71l0.12 0.7 0.12 0.59 0.35 0.47 0.47 0.35 1.06 0.47 1.17 0.12h1.3l0.58 0.12h0.94l1.18 0.12 2.59 0.11 1.17 0.12h1.88l0.71-0.12 0.94-0.35 0.71-0.7 0.7-0.83 0.47-0.59 0.47-0.7 1.29-1.88 0.59-0.83 0.47-0.7 0.36-0.47 0.11-0.24 4.59 10.47-13.64 29.04h4.94l1.06-0.12 0.7-0.23 0.59-0.24 0.35-0.35 0.35-0.47 0.71-1.06 0.12-0.23 0.23-0.36 0.47-0.94 0.71-1.29 0.7-1.65 0.94-1.76 1.06-2 2-4.23 1.06-2.12 1.06-2 0.94-1.88 0.82-1.76 0.71-1.41 0.47-1.06 0.35-0.71 0.12-0.11v-0.12 0.35l0.12 0.47v1.29l0.11 0.83 0.12 1.76 0.12 2.12 0.12 2 0.11 1.88 0.12 1.53 0.24 1.29 0.35 0.82 0.47 0.71 0.59 0.47 0.7 0.23 0.83 0.12h21.51v-0.12l-0.12-0.11-0.11-0.36-0.24-0.35-0.59-1.29-0.82-1.53-0.47-0.82-0.59-0.59-0.7-0.36-0.59-0.35-1.41-0.23-1.41-0.12h-10.94v-0.94l-0.11-1.18-0.12-1.41-0.24-3.29-0.11-1.76-0.12-1.65-0.12-1.41-0.24-1.18-0.11-1.05-0.24-0.83-0.47-1.41-0.59-1.29-0.47-0.94-0.58-1.3-0.71-1.64-0.71-1.53-0.7-1.65-0.59-1.29-0.23-0.47-0.24-0.35-0.12-0.24v-0.12h6.59v0.12l0.12 0.12 0.47 0.7 0.58 1.06 1.41 2.59 0.71 1.18 0.59 1.05 0.47 0.71 0.7 0.94 0.83 0.71 0.47 0.23 0.58 0.12 0.59-0.12 0.59-0.23 0.59-0.36 0.47-0.47 0.47-0.94v-0.59l-0.12-0.58-0.35-1.06-0.35-0.59-0.36-0.71-1.05-1.88-2.36-4.23-0.58-0.94-0.59-0.71-0.59-0.58-0.59-0.47-0.59-0.24-0.7-0.23h-0.82l-0.94-0.12h-1.18l-1.41-0.12h-3.53l-3.76-0.12h-5.06l-1.29 0.24-1.06 0.23-0.82 0.36-0.82 0.47-0.59 0.47-1.18 1.29-0.7 0.94-0.83 1.18-1.06 1.29-0.94 1.41-0.94 1.29-0.7 1.06-0.47 0.82-0.24 0.12v0.12z" class="st2"/>
</svg>
